<?xml version="1.0" encoding="UTF-8"?>
<svg id="Layer_1" data-name="Layer 1" xmlns="http://www.w3.org/2000/svg" width='80px' fill='#ffffff' viewBox="0 0 1270.32 496.45">
  <defs>
    <style>
      .cls-1 {
        fill: #fff;
      }
    </style>
  </defs>
  <path d="M708.09,38.9c-17.75-14.13-40.06-19.92-59.44-31.06,.04-.51,.09-1.02,.13-1.52,9.86-1.64,19.66-4.09,29.58-4.75,16.91-1.12,33.93-1.92,50.85-1.4,19.77,.61,39.52,2.55,59.24,4.37,15.08,1.39,30.14,3.25,45.14,5.33,15.16,2.1,30.27,4.57,45.36,7.17,13.94,2.41,27.86,5.01,41.7,7.91,17.91,3.75,35.8,7.62,53.58,11.92,24.25,5.86,48.49,11.82,72.56,18.39,22.78,6.22,45.3,13.37,67.98,19.94,38.25,11.09,74.72,26.88,111.49,41.86,6.28,2.56,6.38,3.51,4.63,10.17-2.45,9.31-4.24,18.79-6.21,28.22-.29,1.39-.04,2.89-.04,5.9,1.56-2.09,2.42-2.83,2.76-3.76,3.21-8.9,6.28-17.86,9.5-26.76,2.06-5.67,4.8-7.27,10.77-6.01,3.55,.76,7.15,1.75,10.42,3.29,11.11,5.25,14.23,12.58,11.04,24.48-5.27,19.65-15.06,37.34-24.93,54.8-7.82,13.83-22.23,19.75-36.78,23.98-16.59,4.82-33.36,9.15-50.25,12.83-19.64,4.27-39.51,7.48-59.24,11.37-19.27,3.79-38.49,7.86-57.73,11.8-11.25,2.3-22.54,4.42-33.74,6.96-9.07,2.05-17.99,4.72-27.03,6.89-14.87,3.57-29.85,6.74-44.65,10.57-4.72,1.22-9.57,3.31-13.41,6.25-6.67,5.09-7.69,11.6-4.17,19.71,2.9,6.7,6.06,13.29,9.06,19.95,.59,1.31,.98,2.71,1.67,4.67-4.38,.27-8.15,.61-11.93,.72-25.3,.75-50.6,1.41-75.9,2.17-26.27,.79-52.12,3.95-76.48,14.67-21.68,9.54-39.53,23.34-52.12,44.05-3.59,5.91-11.21,9.38-16.98,13.96-.47-.25-.93-.5-1.4-.75-.13-2.02-.38-4.05-.38-6.07-.02-54.68-.02-109.35-.02-164.03q0-6.77-6.83-6.77c-32.33,0-64.67,.06-97-.07-3.96-.02-6.27,1.11-8.23,4.76-14.53,27.12-29.3,54.1-44.01,81.13-.86,1.58-1.8,3.12-3.16,5.47-1.35-1.8-2.54-3.04-3.33-4.49-14.86-27.31-29.73-54.62-44.42-82.03-1.9-3.54-4.05-4.89-8.12-4.86-31.67,.17-63.34,.19-95,0-4.67-.03-5.89,1.41-5.86,5.95,.19,26.34,.1,52.67,.08,79.01,0,1.91-.17,3.82-.25,5.73-.49,.24-.97,.49-1.46,.73-2.88-3.46-5.78-6.9-8.64-10.38-17.93-21.81-36.9-42.52-62.3-55.95-16.43-8.69-32.07-19.17-50.38-23.81-12.89-3.27-25.79-7.01-38.92-8.77-22.73-3.06-45.62-6.12-68.5-6.59-17.82-.37-35.75,3.05-53.59,5.06-9.59,1.08-19.24,2.15-28.62,4.28-15.21,3.47-30.2,7.92-45.34,11.73-6.01,1.51-12.18,2.42-18.83,2.51,.74-.95,1.36-2.05,2.25-2.83,59.22-52.41,123.68-97.25,193.54-134.34,37.69-20.01,76.58-37.32,117.17-50.37,22.58-7.26,45.76-12.84,68.91-18.14,35.53-8.13,71.68-11.05,108.11-10.42,5.49,.09,10.98,.69,16.46,.67,4.89-.02,6.1,2.64,6.44,6.87,.58,7.29,1.17,14.62,2.39,21.82,4.6,27.18,15.46,51.92,30.96,74.5,23.38,34.05,53.73,60.5,91.09,78.03,15.07,7.07,31.64,10.96,47.55,16.21,1.14,.38,2.52,.05,4.1-.99-4.14-1.67-8.27-3.35-12.41-5-64.06-25.36-110.61-68.91-137.79-132.62-8.06-18.88-13.48-38.29-12.37-59.08,.08-1.5,.06-3,.21-4.49,1.38-13.99,6.76-20.06,20.41-23.5,10.5-2.65,21.09-2.79,31.76-1.6,43.37,4.83,84.53,17.64,124.56,34.51,1.35,.57,2.84,.81,4.27,1.2,.16-.43,.32-.86,.47-1.29Zm-36.75,148.09c.27-.41,.54-.82,.81-1.23-9.01-11.97-18.03-23.93-27.04-35.9,.44-.58,.88-1.17,1.32-1.75,5.99,1.71,11.99,3.41,17.98,5.12,.19-.51,.38-1.02,.57-1.53-10.05-11.88-20.11-23.77-30.16-35.65,.37-.39,.74-.79,1.12-1.18,12.46,2.49,23.22,9.08,34.05,15.49,.26-.34,.52-.68,.78-1.02-6.02-9.29-12.04-18.57-18.07-27.86,.45-.43,.89-.87,1.34-1.3,9.75,4.31,19.5,8.63,29.25,12.94,.23-.46,.47-.91,.7-1.37-.82-.98-1.52-2.11-2.49-2.92-10.62-8.81-20.75-18.33-32.04-26.18-23.86-16.58-50.78-26.76-78.42-35.14-5.81-1.76-10.1,.56-10.51,6.62-.28,4.09,.06,8.36,.96,12.36,2.97,13.22,9.89,24.67,17.22,35.79,19.83,30.08,45.94,53.81,75.56,73.9,5.57,3.78,11.37,7.21,17.06,10.8Zm177.69-104.14c0,.5,.02,.99,.03,1.49,5.54,1.62,11.05,3.36,16.63,4.85,7.48,1.99,14.05,4.42,18.4,12.05,5.5,9.65,15.12,14.86,25.68,17.66,16,4.23,32.28,5.97,48.88,4.83,15.75-1.09,31.6-1.21,47.28-2.86,5.81-.61,11.29-4.36,16.92-6.68-.13-.6-.26-1.19-.4-1.79-2.16-.67-4.3-1.45-6.49-1.99-4.36-1.06-8.75-1.97-13.12-2.97-17.83-4.07-35.59-8.45-53.5-12.13-18.24-3.74-36.54-7.31-54.96-9.97-13.45-1.94-27.13-2.3-40.71-3.26-1.52-.11-3.1,.5-4.65,.78Zm160.02,144.01c-.11-.5-.22-1-.33-1.51-1.79,0-3.63-.27-5.36,.04-9.65,1.75-19.46,3.01-28.88,5.63-17.61,4.89-35.02,10.47-52.45,15.99-16.49,5.23-31.48,13.4-45.05,24.13-6.11,4.83-9,11.05-6.99,18.92,1.23,4.83,2.28,9.76,4.12,14.36,2.39,5.98,5.5,11.68,8.29,17.51,.56-.2,1.12-.41,1.69-.61,0-1.25,.12-2.5-.02-3.73-.76-6.61-1.78-13.2-2.33-19.84-1.05-12.65,3.64-22.5,15.07-28.57,8.96-4.75,17.73-10.11,27.18-13.62,22.4-8.33,45.12-15.76,67.75-23.45,5.71-1.94,11.54-3.51,17.32-5.25Z"/>
  <path d="M534.54,433.46c17.01-26.12,33.42-51.34,49.84-76.56,.36,.05,.71,.09,1.07,.14,.12,1.51,.36,3.02,.36,4.53,.02,42.5,.02,84.99,0,127.49,0,6.18-1.13,7.31-7.29,7.31-29.99,.02-59.99-.05-89.98,.08-3.71,.02-4.88-1.09-4.87-4.82,.11-43.66,.06-87.32,.08-130.98,0-1.12,.2-2.24,1.36-3.86,16.11,24.99,32.22,49.99,49.43,76.68Z"/>
</svg>